P3
80 80
255
0 0 0  0 0 0  0 0 0  0 0 0  0 0 0  0 0 0
0 0 0  0 0 0  0 0 0  0 0 0  0 0 0  0 0 0
0 0 0  177 8 55  178 8 56  178 8 56  178 8 56  178 8 56
178 8 56  178 8 56  178 8 56  178 8 56  178 8 56  178 8 56
178 8 56  178 8 56  178 8 56  178 8 56  178 8 56  178 8 56
178 8 56  178 8 56  177 8 55  177 8 55  178 8 56  0 0 0
0 0 0  0 0 0  177 8 56  178 8 56  178 8 56  178 8 56
178 8 56  178 8 56  178 8 56  178 8 56  178 8 56  178 8 56
178 8 56  178 8 56  178 8 56  178 8 56  178 8 56  178 8 56
178 8 56  178 8 56  177 8 55  178 8 56  0 0 0  178 8 56
0 0 0  0 0 0  0 0 0  0 0 0  178 8 56  177 8 56
178 8 56  178 8 55  0 0 0  0 0 0  0 0 0  0 0 0
0 0 0  0 0 0  0 0 0  0 0 0  0 0 0  0 0 0
0 0 0  0 0 0
0 0 0  0 0 0  0 0 0  0 0 0  0 0 0  0 0 0
0 0 0  0 0 0  0 0 0  0 0 0  0 0 0  0 0 0
0 0 0  177 8 55  178 8 56  178 8 56  178 8 56  178 8 56
178 8 56  178 8 56  178 8 56  178 8 56  178 8 56  178 8 56
178 8 56  178 8 56  178 8 56  178 8 56  178 8 56  178 8 56
178 8 56  178 8 56  178 8 56  178 8 56  178 8 56  0 0 0
177 8 56  0 0 0  178 8 55  178 8 56  178 8 56  178 8 56
178 8 56  178 8 56  178 8 56  178 8 56  178 8 56  178 8 56
178 8 56  178 8 56  178 8 56  178 8 56  178 8 56  178 8 56
178 8 56  178 8 56  178 8 55  178 8 55  178 8 56  0 0 0
177 8 55  0 0 0  0 0 0  0 0 0  178 8 55  177 8 56
178 8 55  178 8 56  0 0 0  0 0 0  0 0 0  0 0 0
0 0 0  0 0 0  0 0 0  0 0 0  0 0 0  0 0 0
0 0 0  0 0 0
0 0 0  0 0 0  0 0 0  0 0 0  0 0 0  0 0 0
0 0 0  0 0 0  0 0 0  0 0 0  0 0 0  0 0 0
0 0 0  177 8 55  178 8 56  178 8 56  178 8 56  178 8 56
178 8 56  178 8 56  178 8 56  178 8 56  178 8 56  178 8 56
178 8 56  178 8 56  178 8 56  178 8 56  178 8 56  178 8 56
178 8 56  178 8 56  178 8 56  178 8 56  178 8 56  178 8 56
0 0 0  0 0 0  177 8 55  178 8 56  178 8 56  178 8 56
178 8 56  178 8 56  178 8 56  178 8 56  178 8 56  178 8 56
178 8 56  178 8 56  178 8 56  178 8 56  178 8 56  178 8 56
178 8 56  178 8 56  178 8 56  178 8 56  178 8 55  177 8 55
0 0 0  177 8 55  0 0 0  0 0 0  178 8 56  177 8 56
177 8 56  178 8 56  0 0 0  0 0 0  0 0 0  0 0 0
0 0 0  0 0 0  0 0 0  0 0 0  0 0 0  0 0 0
0 0 0  0 0 0
0 0 0  0 0 0  0 0 0  0 0 0  0 0 0  0 0 0
0 0 0  0 0 0  0 0 0  0 0 0  0 0 0  0 0 0
0 0 0  177 8 55  178 8 56  178 8 56  178 8 56  178 8 56
178 8 56  178 8 56  178 8 56  178 8 56  178 8 56  178 8 56
178 8 56  178 8 56  178 8 56  178 8 56  178 8 56  178 8 56
178 8 56  178 8 56  178 8 56  178 8 56  178 8 56  178 8 56
0 0 0  0 0 0  177 8 56  178 8 56  178 8 56  178 8 56
178 8 56  178 8 56  178 8 56  178 8 56  178 8 56  178 8 56
178 8 56  178 8 56  178 8 56  178 8 56  178 8 56  178 8 56
178 8 56  178 8 56  178 8 56  178 8 56  178 8 56  178 8 55
177 8 55  0 0 0  0 0 0  0 0 0  178 8 56  177 8 55
177 8 56  178 8 56  0 0 0  0 0 0  0 0 0  0 0 0
0 0 0  0 0 0  0 0 0  0 0 0  0 0 0  0 0 0
0 0 0  0 0 0
0 0 0  0 0 0  0 0 0  0 0 0  0 0 0  0 0 0
0 0 0  0 0 0  0 0 0  0 0 0  0 0 0  0 0 0
0 0 0  177 8 55  177 8 55  178 8 56  178 8 56  178 8 56
178 8 56  178 8 56  178 8 56  178 8 56  178 8 56  178 8 56
178 8 56  178 8 56  178 8 56  178 8 56  178 8 56  178 8 56
178 8 56  178 8 56  178 8 56  178 8 56  178 8 55  178 8 56
178 8 56  0 0 0  178 8 55  177 8 56  178 8 56  178 8 56
178 8 56  178 8 56  178 8 56  178 8 56  178 8 56  178 8 56
178 8 56  178 8 56  178 8 56  178 8 56  178 8 56  178 8 56
178 8 56  178 8 56  178 8 56  178 8 56  178 8 56  178 8 55
178 8 56  0 0 0  0 0 0  0 0 0  178 8 56  178 8 56
177 8 55  178 8 56  0 0 0  0 0 0  0 0 0  0 0 0
0 0 0  0 0 0  0 0 0  0 0 0  0 0 0  0 0 0
0 0 0  0 0 0
0 0 0  0 0 0  0 0 0  0 0 0  0 0 0  0 0 0
0 0 0  0 0 0  0 0 0  0 0 0  0 0 0  0 0 0
0 0 0  177 8 55  177 8 55  178 8 56  178 8 56  178 8 56
178 8 56  178 8 56  178 8 56  178 8 56  178 8 56  178 8 56
178 8 56  178 8 56  178 8 56  178 8 56  178 8 56  178 8 56
177 8 55  177 8 56  177 8 56  178 8 56  178 8 56  177 8 55
177 8 55  0 0 0  178 8 56  177 8 56  178 8 56  178 8 55
178 8 56  178 8 56  178 8 56  178 8 56  178 8 56  178 8 56
178 8 56  178 8 56  178 8 56  178 8 56  178 8 56  178 8 56
178 8 56  178 8 56  178 8 56  177 8 56  178 8 56  177 8 55
177 8 56  177 8 55  0 0 0  0 0 0  178 8 56  178 8 56
177 8 56  178 8 56  0 0 0  0 0 0  0 0 0  0 0 0
0 0 0  0 0 0  0 0 0  0 0 0  0 0 0  0 0 0
0 0 0  0 0 0
0 0 0  0 0 0  0 0 0  0 0 0  0 0 0  0 0 0
0 0 0  0 0 0  0 0 0  0 0 0  0 0 0  0 0 0
0 0 0  177 8 55  178 8 56  177 8 55  178 8 56  178 8 56
178 8 56  178 8 56  178 8 56  178 8 56  178 8 56  178 8 56
178 8 56  178 8 56  178 8 56  178 8 56  178 8 56  178 8 56
178 8 56  178 8 56  178 8 56  178 8 56  178 8 56  178 8 56
178 8 56  0 0 0  177 8 55  178 8 56  177 8 55  177 8 55
178 8 56  178 8 56  178 8 56  178 8 56  178 8 56  178 8 56
178 8 56  178 8 56  178 8 56  178 8 56  178 8 56  178 8 56
178 8 55  177 8 55  178 8 56  178 8 56  178 8 56  177 8 56
178 8 56  177 8 56  0 0 0  0 0 0  177 8 55  177 8 56
177 8 55  178 8 56  0 0 0  0 0 0  0 0 0  0 0 0
0 0 0  0 0 0  0 0 0  0 0 0  0 0 0  0 0 0
0 0 0  0 0 0
0 0 0  0 0 0  0 0 0  0 0 0  0 0 0  0 0 0
0 0 0  0 0 0  0 0 0  0 0 0  0 0 0  0 0 0
0 0 0  177 8 55  178 8 56  178 8 56  177 8 55  0 0 0
0 0 0  0 0 0  0 0 0  0 0 0  0 0 0  0 0 0
0 0 0  0 0 0  0 0 0  0 0 0  0 0 0  0 0 0
0 0 0  0 0 0  178 8 56  178 8 56  178 8 56  178 8 56
178 8 56  0 0 0  178 8 55  178 8 56  178 8 56  178 8 56
0 0 0  0 0 0  0 0 0  0 0 0  0 0 0  0 0 0
0 0 0  0 0 0  0 0 0  0 0 0  0 0 0  0 0 0
0 0 0  0 0 0  0 0 0  178 8 56  177 8 56  178 8 56
177 8 55  178 8 56  0 0 0  0 0 0  177 8 55  177 8 56
177 8 55  178 8 56  0 0 0  0 0 0  0 0 0  0 0 0
0 0 0  0 0 0  0 0 0  0 0 0  0 0 0  0 0 0
0 0 0  0 0 0
0 0 0  0 0 0  0 0 0  0 0 0  0 0 0  0 0 0
0 0 0  0 0 0  0 0 0  0 0 0  0 0 0  0 0 0
0 0 0  177 8 55  178 8 56  177 8 56  177 8 55  0 0 0
0 0 0  0 0 0  0 0 0  0 0 0  0 0 0  0 0 0
0 0 0  0 0 0  0 0 0  0 0 0  0 0 0  0 0 0
0 0 0  178 8 56  0 0 0  178 8 55  178 8 56  178 8 56
178 8 56  178 8 56  178 8 56  178 8 56  178 8 55  178 8 56
0 0 0  0 0 0  0 0 0  0 0 0  0 0 0  0 0 0
0 0 0  0 0 0  0 0 0  0 0 0  0 0 0  0 0 0
0 0 0  178 8 55  0 0 0  177 8 56  178 8 56  178 8 56
178 8 55  178 8 55  0 0 0  178 8 56  0 0 0  0 0 0
0 0 0  0 0 0  0 0 0  0 0 0  0 0 0  0 0 0
0 0 0  0 0 0  0 0 0  0 0 0  0 0 0  0 0 0
0 0 0  0 0 0
0 0 0  0 0 0  0 0 0  0 0 0  0 0 0  0 0 0
0 0 0  0 0 0  0 0 0  0 0 0  0 0 0  0 0 0
0 0 0  177 8 55  178 8 56  177 8 56  177 8 55  0 0 0
0 0 0  0 0 0  0 0 0  0 0 0  0 0 0  0 0 0
0 0 0  0 0 0  0 0 0  0 0 0  0 0 0  0 0 0
0 0 0  0 0 0  178 8 56  178 8 55  178 8 56  178 8 56
178 8 56  177 8 56  178 8 56  178 8 56  177 8 55  178 8 56
0 0 0  0 0 0  0 0 0  0 0 0  0 0 0  0 0 0
0 0 0  0 0 0  0 0 0  0 0 0  0 0 0  0 0 0
0 0 0  0 0 0  0 0 0  0 0 0  178 8 56  177 8 55
177 8 55  177 8 56  0 0 0  178 8 55  0 0 0  0 0 0
0 0 0  0 0 0  0 0 0  0 0 0  0 0 0  0 0 0
0 0 0  0 0 0  0 0 0  0 0 0  0 0 0  0 0 0
0 0 0  0 0 0
0 0 0  0 0 0  0 0 0  0 0 0  0 0 0  0 0 0
0 0 0  0 0 0  0 0 0  0 0 0  0 0 0  0 0 0
0 0 0  177 8 55  177 8 55  177 8 56  177 8 55  0 0 0
0 0 0  0 0 0  0 0 0  0 0 0  0 0 0  0 0 0
0 0 0  0 0 0  0 0 0  0 0 0  0 0 0  0 0 0
0 0 0  0 0 0  178 8 56  178 8 56  177 8 56  178 8 56
177 8 55  178 8 56  178 8 56  177 8 56  177 8 55  178 8 56
0 0 0  0 0 0  0 0 0  0 0 0  0 0 0  0 0 0
0 0 0  0 0 0  0 0 0  0 0 0  0 0 0  0 0 0
0 0 0  0 0 0  178 8 56  0 0 0  178 8 56  178 8 56
177 8 55  177 8 55  178 8 56  0 0 0  0 0 0  0 0 0
0 0 0  0 0 0  0 0 0  0 0 0  0 0 0  0 0 0
0 0 0  0 0 0  0 0 0  0 0 0  0 0 0  0 0 0
0 0 0  0 0 0
0 0 0  0 0 0  0 0 0  0 0 0  0 0 0  0 0 0
0 0 0  0 0 0  0 0 0  0 0 0  0 0 0  0 0 0
0 0 0  177 8 55  178 8 56  178 8 56  177 8 55  0 0 0
0 0 0  0 0 0  0 0 0  0 0 0  0 0 0  0 0 0
0 0 0  0 0 0  0 0 0  0 0 0  0 0 0  0 0 0
0 0 0  0 0 0  0 0 0  178 8 55  177 8 56  177 8 56
177 8 56  178 8 56  178 8 56  178 8 56  178 8 56  178 8 56
0 0 0  0 0 0  0 0 0  0 0 0  0 0 0  0 0 0
0 0 0  0 0 0  0 0 0  0 0 0  0 0 0  0 0 0
0 0 0  0 0 0  0 0 0  0 0 0  0 0 0  178 8 56
178 8 56  178 8 56  178 8 55  0 0 0  0 0 0  0 0 0
0 0 0  0 0 0  0 0 0  0 0 0  0 0 0  0 0 0
0 0 0  0 0 0  0 0 0  0 0 0  0 0 0  0 0 0
0 0 0  0 0 0
0 0 0  0 0 0  0 0 0  0 0 0  0 0 0  0 0 0
0 0 0  0 0 0  0 0 0  0 0 0  0 0 0  0 0 0
0 0 0  177 8 55  178 8 56  178 8 56  177 8 55  0 0 0
0 0 0  0 0 0  0 0 0  0 0 0  0 0 0  0 0 0
0 0 0  0 0 0  0 0 0  0 0 0  0 0 0  0 0 0
0 0 0  0 0 0  0 0 0  178 8 56  178 8 56  178 8 56
178 8 55  178 8 56  178 8 55  178 8 56  178 8 56  178 8 56
0 0 0  0 0 0  0 0 0  0 0 0  0 0 0  0 0 0
0 0 0  0 0 0  0 0 0  0 0 0  0 0 0  0 0 0
0 0 0  0 0 0  0 0 0  178 8 56  0 0 0  178 8 56
177 8 56  178 8 56  178 8 56  0 0 0  0 0 0  0 0 0
0 0 0  0 0 0  0 0 0  0 0 0  0 0 0  0 0 0
0 0 0  0 0 0  0 0 0  0 0 0  0 0 0  0 0 0
0 0 0  0 0 0
0 0 0  0 0 0  0 0 0  0 0 0  0 0 0  0 0 0
0 0 0  0 0 0  0 0 0  0 0 0  0 0 0  0 0 0
0 0 0  177 8 55  178 8 56  178 8 56  177 8 55  0 0 0
0 0 0  0 0 0  0 0 0  0 0 0  0 0 0  0 0 0
0 0 0  0 0 0  0 0 0  0 0 0  0 0 0  0 0 0
0 0 0  0 0 0  0 0 0  178 8 56  178 8 56  178 8 56
178 8 56  178 8 56  178 8 56  178 8 56  178 8 56  178 8 56
0 0 0  0 0 0  0 0 0  0 0 0  0 0 0  0 0 0
0 0 0  0 0 0  0 0 0  0 0 0  0 0 0  0 0 0
0 0 0  0 0 0  0 0 0  0 0 0  0 0 0  177 8 56
178 8 56  177 8 56  178 8 56  0 0 0  0 0 0  0 0 0
0 0 0  0 0 0  0 0 0  0 0 0  0 0 0  0 0 0
0 0 0  0 0 0  0 0 0  0 0 0  0 0 0  0 0 0
0 0 0  0 0 0
0 0 0  0 0 0  0 0 0  0 0 0  0 0 0  0 0 0
0 0 0  0 0 0  0 0 0  0 0 0  0 0 0  0 0 0
0 0 0  177 8 55  178 8 56  177 8 56  177 8 55  0 0 0
0 0 0  0 0 0  0 0 0  0 0 0  0 0 0  0 0 0
0 0 0  0 0 0  0 0 0  0 0 0  0 0 0  0 0 0
0 0 0  0 0 0  0 0 0  178 8 56  178 8 56  178 8 55
178 8 56  178 8 56  178 8 56  178 8 56  177 8 55  178 8 56
0 0 0  0 0 0  0 0 0  0 0 0  0 0 0  0 0 0
0 0 0  0 0 0  0 0 0  0 0 0  0 0 0  0 0 0
0 0 0  0 0 0  0 0 0  0 0 0  0 0 0  177 8 56
177 8 55  178 8 56  178 8 56  0 0 0  177 8 55  177 8 55
177 8 55  178 8 56  0 0 0  0 0 0  0 0 0  0 0 0
0 0 0  0 0 0  0 0 0  0 0 0  0 0 0  0 0 0
0 0 0  0 0 0
0 0 0  0 0 0  0 0 0  0 0 0  0 0 0  0 0 0
0 0 0  0 0 0  0 0 0  0 0 0  0 0 0  0 0 0
0 0 0  177 8 55  178 8 56  177 8 56  177 8 55  0 0 0
0 0 0  0 0 0  0 0 0  0 0 0  0 0 0  0 0 0
0 0 0  0 0 0  0 0 0  0 0 0  0 0 0  0 0 0
0 0 0  0 0 0  0 0 0  178 8 55  177 8 55  178 8 55
178 8 56  178 8 56  178 8 56  177 8 56  177 8 55  178 8 56
0 0 0  0 0 0  0 0 0  0 0 0  0 0 0  0 0 0
0 0 0  0 0 0  0 0 0  0 0 0  0 0 0  0 0 0
0 0 0  0 0 0  0 0 0  0 0 0  0 0 0  178 8 56
178 8 56  178 8 56  178 8 56  0 0 0  177 8 55  177 8 55
177 8 55  177 8 55  0 0 0  0 0 0  0 0 0  0 0 0
0 0 0  0 0 0  0 0 0  0 0 0  0 0 0  0 0 0
0 0 0  0 0 0
0 0 0  0 0 0  0 0 0  0 0 0  0 0 0  0 0 0
0 0 0  0 0 0  0 0 0  0 0 0  0 0 0  0 0 0
0 0 0  177 8 55  177 8 55  177 8 55  177 8 55  0 0 0
0 0 0  0 0 0  0 0 0  0 0 0  0 0 0  0 0 0
0 0 0  0 0 0  0 0 0  0 0 0  0 0 0  0 0 0
0 0 0  0 0 0  0 0 0  178 8 56  177 8 55  178 8 55
178 8 56  177 8 55  178 8 56  177 8 56  177 8 55  178 8 56
0 0 0  0 0 0  0 0 0  0 0 0  0 0 0  0 0 0
0 0 0  0 0 0  0 0 0  0 0 0  0 0 0  0 0 0
0 0 0  0 0 0  0 0 0  0 0 0  0 0 0  178 8 56
178 8 56  178 8 55  178 8 55  0 0 0  178 8 55  178 8 55
178 8 56  178 8 55  0 0 0  0 0 0  0 0 0  0 0 0
0 0 0  0 0 0  0 0 0  0 0 0  0 0 0  0 0 0
0 0 0  0 0 0
0 0 0  0 0 0  0 0 0  0 0 0  0 0 0  0 0 0
0 0 0  0 0 0  0 0 0  0 0 0  0 0 0  0 0 0
0 0 0  177 8 55  178 8 56  178 8 56  177 8 55  0 0 0
0 0 0  0 0 0  0 0 0  0 0 0  0 0 0  0 0 0
0 0 0  0 0 0  0 0 0  0 0 0  0 0 0  0 0 0
0 0 0  0 0 0  0 0 0  178 8 56  178 8 56  177 8 56
178 8 55  178 8 56  178 8 56  178 8 56  178 8 56  178 8 56
0 0 0  0 0 0  0 0 0  0 0 0  0 0 0  0 0 0
0 0 0  0 0 0  0 0 0  0 0 0  0 0 0  0 0 0
0 0 0  0 0 0  0 0 0  0 0 0  0 0 0  178 8 56
178 8 56  178 8 56  178 8 56  0 0 0  178 8 56  177 8 56
177 8 56  178 8 56  0 0 0  0 0 0  0 0 0  0 0 0
0 0 0  0 0 0  0 0 0  0 0 0  0 0 0  0 0 0
0 0 0  0 0 0
0 0 0  0 0 0  0 0 0  0 0 0  0 0 0  0 0 0
0 0 0  0 0 0  0 0 0  0 0 0  0 0 0  0 0 0
0 0 0  177 8 55  178 8 56  178 8 56  177 8 55  0 0 0
0 0 0  0 0 0  0 0 0  0 0 0  0 0 0  0 0 0
0 0 0  0 0 0  0 0 0  0 0 0  0 0 0  0 0 0
0 0 0  0 0 0  0 0 0  178 8 56  178 8 56  178 8 56
178 8 56  177 8 55  178 8 56  178 8 56  178 8 56  178 8 56
0 0 0  0 0 0  0 0 0  0 0 0  0 0 0  0 0 0
0 0 0  0 0 0  0 0 0  0 0 0  0 0 0  0 0 0
0 0 0  0 0 0  0 0 0  0 0 0  0 0 0  178 8 56
177 8 55  177 8 55  178 8 56  0 0 0  178 8 56  177 8 56
177 8 56  178 8 56  0 0 0  0 0 0  0 0 0  0 0 0
0 0 0  0 0 0  0 0 0  0 0 0  0 0 0  0 0 0
0 0 0  0 0 0
0 0 0  0 0 0  0 0 0  0 0 0  0 0 0  0 0 0
0 0 0  0 0 0  0 0 0  0 0 0  0 0 0  0 0 0
0 0 0  177 8 55  178 8 56  178 8 56  177 8 55  0 0 0
0 0 0  0 0 0  0 0 0  0 0 0  0 0 0  0 0 0
0 0 0  0 0 0  0 0 0  0 0 0  0 0 0  0 0 0
0 0 0  0 0 0  0 0 0  178 8 56  178 8 56  178 8 56
177 8 56  178 8 56  178 8 56  178 8 56  178 8 56  178 8 56
0 0 0  0 0 0  0 0 0  0 0 0  0 0 0  0 0 0
0 0 0  0 0 0  0 0 0  0 0 0  0 0 0  0 0 0
0 0 0  0 0 0  0 0 0  0 0 0  178 8 56  177 8 55
178 8 56  177 8 55  178 8 56  0 0 0  178 8 56  177 8 56
177 8 56  178 8 56  0 0 0  0 0 0  0 0 0  0 0 0
0 0 0  0 0 0  0 0 0  0 0 0  0 0 0  0 0 0
0 0 0  0 0 0
0 0 0  0 0 0  0 0 0  0 0 0  0 0 0  0 0 0
0 0 0  0 0 0  0 0 0  0 0 0  0 0 0  0 0 0
0 0 0  177 8 55  178 8 56  177 8 56  177 8 55  0 0 0
0 0 0  0 0 0  0 0 0  0 0 0  0 0 0  0 0 0
0 0 0  0 0 0  0 0 0  0 0 0  0 0 0  0 0 0
0 0 0  0 0 0  178 8 56  178 8 56  177 8 56  178 8 56
178 8 56  177 8 56  178 8 56  178 8 56  177 8 55  178 8 56
0 0 0  0 0 0  0 0 0  0 0 0  0 0 0  0 0 0
0 0 0  0 0 0  0 0 0  0 0 0  0 0 0  0 0 0
0 0 0  0 0 0  0 0 0  0 0 0  0 0 0  177 8 55
177 8 56  177 8 55  178 8 56  0 0 0  178 8 56  177 8 55
177 8 56  178 8 56  0 0 0  0 0 0  0 0 0  0 0 0
0 0 0  0 0 0  0 0 0  0 0 0  0 0 0  0 0 0
0 0 0  0 0 0
0 0 0  0 0 0  0 0 0  0 0 0  0 0 0  0 0 0
0 0 0  0 0 0  0 0 0  0 0 0  0 0 0  0 0 0
0 0 0  177 8 55  177 8 55  177 8 56  177 8 55  0 0 0
0 0 0  0 0 0  0 0 0  0 0 0  0 0 0  0 0 0
0 0 0  0 0 0  0 0 0  0 0 0  0 0 0  0 0 0
0 0 0  0 0 0  0 0 0  177 8 55  178 8 55  178 8 55
178 8 55  178 8 56  178 8 56  177 8 56  177 8 55  178 8 56
0 0 0  0 0 0  0 0 0  0 0 0  0 0 0  0 0 0
0 0 0  0 0 0  0 0 0  0 0 0  0 0 0  0 0 0
0 0 0  0 0 0  0 0 0  0 0 0  0 0 0  177 8 55
178 8 56  178 8 56  178 8 55  0 0 0  178 8 56  178 8 56
177 8 55  178 8 56  0 0 0  0 0 0  0 0 0  0 0 0
0 0 0  0 0 0  0 0 0  0 0 0  0 0 0  0 0 0
0 0 0  0 0 0
0 0 0  0 0 0  0 0 0  0 0 0  0 0 0  0 0 0
0 0 0  0 0 0  0 0 0  0 0 0  0 0 0  0 0 0
0 0 0  177 8 55  177 8 55  177 8 55  177 8 55  0 0 0
0 0 0  0 0 0  0 0 0  0 0 0  0 0 0  0 0 0
0 0 0  0 0 0  0 0 0  0 0 0  0 0 0  0 0 0
0 0 0  178 8 56  0 0 0  177 8 55  178 8 55  177 8 55
177 8 55  178 8 56  178 8 55  177 8 56  177 8 55  178 8 56
0 0 0  0 0 0  0 0 0  0 0 0  0 0 0  0 0 0
0 0 0  0 0 0  0 0 0  0 0 0  0 0 0  0 0 0
0 0 0  0 0 0  0 0 0  0 0 0  0 0 0  177 8 55
177 8 56  178 8 56  178 8 56  0 0 0  178 8 56  178 8 56
177 8 56  178 8 56  0 0 0  0 0 0  0 0 0  0 0 0
0 0 0  0 0 0  0 0 0  0 0 0  0 0 0  0 0 0
0 0 0  0 0 0
0 0 0  0 0 0  0 0 0  0 0 0  0 0 0  0 0 0
0 0 0  0 0 0  0 0 0  0 0 0  0 0 0  0 0 0
0 0 0  177 8 55  178 8 56  178 8 56  177 8 55  0 0 0
0 0 0  0 0 0  0 0 0  0 0 0  0 0 0  0 0 0
0 0 0  0 0 0  0 0 0  0 0 0  0 0 0  0 0 0
0 0 0  177 8 55  178 8 56  178 8 55  178 8 56  178 8 56
178 8 56  0 0 0  178 8 56  178 8 56  178 8 56  178 8 56
0 0 0  0 0 0  0 0 0  0 0 0  0 0 0  0 0 0
0 0 0  0 0 0  0 0 0  0 0 0  0 0 0  0 0 0
0 0 0  0 0 0  0 0 0  0 0 0  0 0 0  177 8 55
177 8 56  178 8 56  178 8 56  0 0 0  178 8 56  177 8 56
177 8 56  178 8 56  0 0 0  0 0 0  0 0 0  0 0 0
0 0 0  0 0 0  0 0 0  0 0 0  0 0 0  0 0 0
0 0 0  0 0 0
0 0 0  0 0 0  0 0 0  0 0 0  0 0 0  0 0 0
0 0 0  0 0 0  0 0 0  0 0 0  0 0 0  0 0 0
0 0 0  177 8 55  178 8 56  178 8 56  177 8 55  177 8 56
178 8 56  178 8 56  178 8 56  178 8 56  178 8 56  178 8 56
178 8 56  178 8 56  178 8 56  178 8 56  178 8 56  178 8 56
177 8 55  178 8 56  178 8 56  178 8 56  178 8 55  178 8 56
178 8 56  0 0 0  178 8 56  178 8 56  178 8 56  178 8 56
0 0 0  0 0 0  0 0 0  0 0 0  0 0 0  0 0 0
0 0 0  0 0 0  0 0 0  0 0 0  0 0 0  0 0 0
0 0 0  0 0 0  0 0 0  0 0 0  0 0 0  177 8 55
177 8 56  178 8 56  178 8 56  0 0 0  178 8 56  177 8 56
177 8 56  178 8 56  0 0 0  0 0 0  0 0 0  0 0 0
0 0 0  0 0 0  0 0 0  0 0 0  0 0 0  0 0 0
0 0 0  0 0 0
0 0 0  0 0 0  0 0 0  0 0 0  0 0 0  0 0 0
0 0 0  0 0 0  0 0 0  0 0 0  0 0 0  0 0 0
0 0 0  177 8 55  178 8 56  178 8 55  178 8 56  178 8 56
178 8 56  178 8 56  178 8 56  178 8 56  178 8 56  178 8 56
178 8 56  178 8 56  178 8 56  178 8 56  178 8 56  178 8 56
178 8 55  178 8 56  178 8 56  178 8 56  178 8 56  178 8 56
178 8 56  0 0 0  177 8 55  178 8 56  178 8 56  178 8 56
0 0 0  0 0 0  0 0 0  0 0 0  0 0 0  0 0 0
0 0 0  0 0 0  0 0 0  0 0 0  0 0 0  0 0 0
0 0 0  0 0 0  0 0 0  0 0 0  0 0 0  177 8 55
177 8 56  178 8 56  178 8 56  0 0 0  178 8 56  177 8 56
177 8 56  178 8 56  0 0 0  0 0 0  0 0 0  0 0 0
0 0 0  0 0 0  0 0 0  0 0 0  0 0 0  0 0 0
0 0 0  0 0 0
0 0 0  0 0 0  0 0 0  0 0 0  0 0 0  0 0 0
0 0 0  0 0 0  0 0 0  0 0 0  0 0 0  0 0 0
0 0 0  177 8 55  178 8 56  178 8 56  178 8 56  178 8 56
178 8 56  178 8 56  178 8 56  178 8 56  178 8 56  178 8 56
178 8 56  178 8 56  178 8 56  178 8 56  178 8 56  178 8 56
178 8 56  178 8 56  178 8 56  178 8 56  178 8 56  178 8 56
178 8 56  0 0 0  177 8 56  178 8 56  177 8 55  178 8 56
0 0 0  0 0 0  0 0 0  0 0 0  0 0 0  0 0 0
0 0 0  0 0 0  0 0 0  0 0 0  0 0 0  0 0 0
0 0 0  0 0 0  0 0 0  0 0 0  0 0 0  177 8 55
177 8 56  178 8 56  178 8 56  0 0 0  178 8 56  177 8 55
177 8 56  178 8 56  0 0 0  0 0 0  0 0 0  0 0 0
0 0 0  0 0 0  0 0 0  0 0 0  0 0 0  0 0 0
0 0 0  0 0 0
0 0 0  0 0 0  0 0 0  0 0 0  0 0 0  0 0 0
0 0 0  0 0 0  0 0 0  0 0 0  0 0 0  0 0 0
0 0 0  177 8 55  177 8 55  178 8 56  178 8 56  178 8 56
178 8 56  178 8 56  178 8 56  178 8 56  178 8 56  178 8 56
178 8 56  178 8 56  178 8 56  178 8 56  178 8 56  178 8 56
178 8 56  178 8 56  178 8 56  178 8 56  178 8 55  177 8 55
0 0 0  0 0 0  178 8 55  177 8 56  177 8 55  178 8 56
0 0 0  0 0 0  0 0 0  0 0 0  0 0 0  0 0 0
0 0 0  0 0 0  0 0 0  0 0 0  0 0 0  0 0 0
0 0 0  0 0 0  0 0 0  0 0 0  0 0 0  177 8 55
178 8 56  178 8 56  178 8 56  0 0 0  178 8 56  178 8 56
177 8 55  178 8 56  0 0 0  0 0 0  0 0 0  0 0 0
0 0 0  0 0 0  0 0 0  0 0 0  0 0 0  0 0 0
0 0 0  0 0 0
0 0 0  0 0 0  0 0 0  0 0 0  0 0 0  0 0 0
0 0 0  0 0 0  0 0 0  0 0 0  0 0 0  0 0 0
0 0 0  177 8 55  177 8 55  178 8 56  178 8 56  178 8 56
178 8 56  178 8 56  178 8 56  178 8 56  178 8 56  178 8 56
178 8 56  178 8 56  178 8 56  178 8 56  178 8 56  178 8 56
178 8 56  178 8 56  177 8 56  177 8 56  178 8 56  178 8 56
0 0 0  0 0 0  178 8 56  177 8 56  177 8 55  178 8 56
0 0 0  0 0 0  0 0 0  0 0 0  0 0 0  0 0 0
0 0 0  0 0 0  0 0 0  0 0 0  0 0 0  0 0 0
0 0 0  0 0 0  0 0 0  0 0 0  0 0 0  177 8 55
177 8 56  178 8 56  178 8 56  0 0 0  178 8 56  178 8 56
177 8 56  178 8 56  0 0 0  0 0 0  0 0 0  0 0 0
0 0 0  0 0 0  0 0 0  0 0 0  0 0 0  0 0 0
0 0 0  0 0 0
0 0 0  0 0 0  0 0 0  0 0 0  0 0 0  0 0 0
0 0 0  0 0 0  0 0 0  0 0 0  0 0 0  0 0 0
0 0 0  177 8 55  178 8 56  178 8 55  178 8 56  178 8 55
178 8 56  178 8 56  178 8 56  178 8 56  178 8 56  178 8 56
178 8 56  178 8 56  178 8 56  178 8 56  178 8 56  178 8 56
178 8 56  178 8 56  178 8 56  178 8 56  178 8 55  0 0 0
0 0 0  0 0 0  177 8 55  178 8 56  178 8 56  178 8 56
0 0 0  0 0 0  0 0 0  0 0 0  0 0 0  0 0 0
0 0 0  0 0 0  0 0 0  0 0 0  0 0 0  0 0 0
0 0 0  0 0 0  0 0 0  0 0 0  178 8 56  177 8 56
178 8 55  177 8 55  178 8 56  0 0 0  178 8 56  177 8 56
177 8 56  178 8 56  0 0 0  0 0 0  0 0 0  0 0 0
0 0 0  0 0 0  0 0 0  0 0 0  0 0 0  0 0 0
0 0 0  0 0 0
0 0 0  0 0 0  0 0 0  0 0 0  0 0 0  0 0 0
0 0 0  0 0 0  0 0 0  0 0 0  0 0 0  0 0 0
0 0 0  177 8 55  178 8 56  178 8 56  178 8 56  178 8 56
178 8 56  178 8 56  178 8 56  178 8 56  178 8 56  178 8 56
178 8 56  178 8 56  178 8 56  178 8 56  178 8 56  178 8 56
177 8 56  177 8 55  178 8 56  0 0 0  0 0 0  178 8 55
0 0 0  0 0 0  177 8 55  178 8 56  178 8 56  178 8 56
0 0 0  0 0 0  0 0 0  0 0 0  0 0 0  0 0 0
0 0 0  0 0 0  0 0 0  0 0 0  0 0 0  0 0 0
0 0 0  0 0 0  0 0 0  0 0 0  0 0 0  177 8 56
177 8 56  177 8 55  178 8 56  0 0 0  178 8 56  177 8 56
177 8 56  178 8 56  0 0 0  0 0 0  0 0 0  0 0 0
0 0 0  0 0 0  0 0 0  0 0 0  0 0 0  0 0 0
0 0 0  0 0 0
0 0 0  0 0 0  0 0 0  0 0 0  0 0 0  0 0 0
0 0 0  0 0 0  0 0 0  0 0 0  0 0 0  0 0 0
0 0 0  177 8 55  178 8 56  177 8 56  177 8 55  0 0 0
0 0 0  0 0 0  0 0 0  0 0 0  0 0 0  0 0 0
0 0 0  0 0 0  0 0 0  0 0 0  0 0 0  0 0 0
0 0 0  0 0 0  0 0 0  177 8 56  0 0 0  0 0 0
0 0 0  0 0 0  177 8 56  178 8 56  178 8 55  178 8 56
0 0 0  0 0 0  0 0 0  0 0 0  0 0 0  0 0 0
0 0 0  0 0 0  0 0 0  0 0 0  0 0 0  0 0 0
0 0 0  0 0 0  0 0 0  0 0 0  0 0 0  177 8 56
178 8 56  178 8 56  178 8 56  0 0 0  178 8 56  177 8 55
177 8 56  178 8 56  0 0 0  0 0 0  0 0 0  0 0 0
0 0 0  0 0 0  0 0 0  0 0 0  0 0 0  0 0 0
0 0 0  0 0 0
0 0 0  0 0 0  0 0 0  0 0 0  0 0 0  0 0 0
0 0 0  0 0 0  0 0 0  0 0 0  0 0 0  0 0 0
0 0 0  177 8 55  178 8 56  177 8 56  177 8 55  0 0 0
0 0 0  0 0 0  0 0 0  0 0 0  0 0 0  0 0 0
0 0 0  0 0 0  0 0 0  0 0 0  0 0 0  0 0 0
0 0 0  0 0 0  0 0 0  0 0 0  0 0 0  0 0 0
0 0 0  0 0 0  177 8 56  178 8 56  177 8 55  178 8 56
0 0 0  0 0 0  0 0 0  0 0 0  0 0 0  0 0 0
0 0 0  0 0 0  0 0 0  0 0 0  0 0 0  0 0 0
0 0 0  0 0 0  0 0 0  0 0 0  0 0 0  178 8 55
178 8 56  178 8 56  178 8 56  0 0 0  178 8 56  177 8 55
177 8 56  178 8 56  0 0 0  0 0 0  0 0 0  0 0 0
0 0 0  0 0 0  0 0 0  0 0 0  0 0 0  0 0 0
0 0 0  0 0 0
0 0 0  0 0 0  0 0 0  0 0 0  0 0 0  0 0 0
0 0 0  0 0 0  0 0 0  0 0 0  0 0 0  0 0 0
0 0 0  177 8 55  177 8 55  177 8 55  177 8 55  0 0 0
0 0 0  0 0 0  0 0 0  0 0 0  0 0 0  0 0 0
0 0 0  0 0 0  0 0 0  0 0 0  0 0 0  0 0 0
0 0 0  0 0 0  0 0 0  0 0 0  0 0 0  0 0 0
0 0 0  0 0 0  178 8 56  177 8 56  177 8 55  178 8 56
0 0 0  0 0 0  0 0 0  0 0 0  0 0 0  0 0 0
0 0 0  0 0 0  0 0 0  0 0 0  0 0 0  0 0 0
0 0 0  0 0 0  0 0 0  0 0 0  0 0 0  178 8 55
178 8 56  178 8 56  178 8 56  0 0 0  178 8 56  178 8 56
177 8 56  178 8 56  0 0 0  0 0 0  0 0 0  0 0 0
0 0 0  0 0 0  0 0 0  0 0 0  0 0 0  0 0 0
0 0 0  0 0 0
0 0 0  0 0 0  0 0 0  0 0 0  0 0 0  0 0 0
0 0 0  0 0 0  0 0 0  0 0 0  0 0 0  0 0 0
0 0 0  177 8 55  178 8 56  178 8 56  177 8 55  0 0 0
0 0 0  0 0 0  0 0 0  0 0 0  0 0 0  0 0 0
0 0 0  0 0 0  0 0 0  0 0 0  0 0 0  0 0 0
0 0 0  0 0 0  0 0 0  0 0 0  0 0 0  0 0 0
0 0 0  0 0 0  177 8 55  178 8 56  178 8 56  178 8 56
0 0 0  0 0 0  0 0 0  0 0 0  0 0 0  0 0 0
0 0 0  0 0 0  0 0 0  0 0 0  0 0 0  0 0 0
0 0 0  0 0 0  0 0 0  0 0 0  0 0 0  178 8 56
178 8 55  178 8 56  178 8 56  0 0 0  178 8 56  177 8 56
177 8 56  178 8 56  0 0 0  0 0 0  0 0 0  0 0 0
0 0 0  0 0 0  0 0 0  0 0 0  0 0 0  0 0 0
0 0 0  0 0 0
0 0 0  0 0 0  0 0 0  0 0 0  0 0 0  0 0 0
0 0 0  0 0 0  0 0 0  0 0 0  0 0 0  0 0 0
0 0 0  177 8 55  178 8 56  178 8 56  177 8 55  0 0 0
0 0 0  0 0 0  0 0 0  0 0 0  0 0 0  0 0 0
0 0 0  0 0 0  0 0 0  0 0 0  0 0 0  0 0 0
0 0 0  0 0 0  0 0 0  0 0 0  0 0 0  0 0 0
0 0 0  0 0 0  177 8 55  178 8 56  178 8 56  178 8 56
0 0 0  0 0 0  0 0 0  0 0 0  0 0 0  0 0 0
0 0 0  0 0 0  0 0 0  0 0 0  0 0 0  0 0 0
0 0 0  0 0 0  0 0 0  0 0 0  0 0 0  178 8 56
178 8 56  178 8 56  178 8 56  0 0 0  178 8 56  177 8 56
177 8 56  178 8 56  0 0 0  0 0 0  0 0 0  0 0 0
0 0 0  0 0 0  0 0 0  0 0 0  0 0 0  0 0 0
0 0 0  0 0 0
0 0 0  0 0 0  0 0 0  0 0 0  0 0 0  0 0 0
0 0 0  0 0 0  0 0 0  0 0 0  0 0 0  0 0 0
0 0 0  177 8 55  178 8 56  178 8 56  177 8 55  0 0 0
0 0 0  0 0 0  0 0 0  0 0 0  0 0 0  0 0 0
0 0 0  0 0 0  0 0 0  0 0 0  0 0 0  0 0 0
0 0 0  0 0 0  0 0 0  0 0 0  0 0 0  0 0 0
0 0 0  0 0 0  177 8 55  178 8 56  178 8 56  178 8 56
0 0 0  0 0 0  0 0 0  0 0 0  0 0 0  0 0 0
0 0 0  0 0 0  0 0 0  0 0 0  0 0 0  0 0 0
0 0 0  0 0 0  0 0 0  0 0 0  0 0 0  178 8 56
178 8 56  178 8 56  178 8 56  0 0 0  178 8 56  177 8 56
177 8 56  178 8 56  0 0 0  0 0 0  0 0 0  0 0 0
0 0 0  0 0 0  0 0 0  0 0 0  0 0 0  0 0 0
0 0 0  0 0 0
0 0 0  0 0 0  0 0 0  0 0 0  0 0 0  0 0 0
0 0 0  0 0 0  0 0 0  0 0 0  0 0 0  0 0 0
0 0 0  177 8 55  178 8 56  177 8 56  177 8 55  0 0 0
0 0 0  0 0 0  0 0 0  0 0 0  0 0 0  0 0 0
0 0 0  0 0 0  0 0 0  0 0 0  0 0 0  0 0 0
0 0 0  0 0 0  0 0 0  0 0 0  0 0 0  0 0 0
0 0 0  0 0 0  177 8 56  178 8 56  177 8 55  178 8 56
0 0 0  0 0 0  0 0 0  0 0 0  0 0 0  0 0 0
0 0 0  0 0 0  0 0 0  0 0 0  0 0 0  0 0 0
0 0 0  0 0 0  0 0 0  178 8 56  0 0 0  178 8 56
178 8 56  178 8 56  178 8 56  0 0 0  178 8 56  177 8 55
177 8 56  178 8 56  0 0 0  0 0 0  0 0 0  0 0 0
0 0 0  0 0 0  0 0 0  0 0 0  0 0 0  0 0 0
0 0 0  0 0 0
0 0 0  0 0 0  0 0 0  0 0 0  0 0 0  0 0 0
0 0 0  0 0 0  0 0 0  0 0 0  0 0 0  0 0 0
0 0 0  177 8 55  178 8 56  177 8 56  177 8 55  0 0 0
0 0 0  0 0 0  0 0 0  0 0 0  0 0 0  0 0 0
0 0 0  0 0 0  0 0 0  0 0 0  0 0 0  0 0 0
0 0 0  0 0 0  0 0 0  0 0 0  0 0 0  0 0 0
0 0 0  0 0 0  178 8 55  177 8 56  177 8 55  178 8 56
0 0 0  0 0 0  0 0 0  0 0 0  0 0 0  0 0 0
0 0 0  0 0 0  0 0 0  0 0 0  0 0 0  0 0 0
0 0 0  0 0 0  0 0 0  0 0 0  177 8 55  178 8 55
177 8 56  178 8 56  178 8 56  0 0 0  178 8 56  177 8 55
177 8 55  178 8 56  0 0 0  0 0 0  0 0 0  0 0 0
0 0 0  0 0 0  0 0 0  0 0 0  0 0 0  0 0 0
0 0 0  0 0 0
0 0 0  0 0 0  0 0 0  0 0 0  0 0 0  0 0 0
0 0 0  0 0 0  0 0 0  0 0 0  0 0 0  0 0 0
0 0 0  177 8 55  177 8 55  177 8 55  177 8 55  0 0 0
0 0 0  0 0 0  0 0 0  0 0 0  0 0 0  0 0 0
0 0 0  0 0 0  0 0 0  0 0 0  0 0 0  0 0 0
0 0 0  0 0 0  0 0 0  0 0 0  0 0 0  0 0 0
0 0 0  0 0 0  178 8 56  177 8 56  177 8 55  178 8 56
0 0 0  0 0 0  0 0 0  0 0 0  0 0 0  0 0 0
0 0 0  0 0 0  0 0 0  0 0 0  0 0 0  0 0 0
0 0 0  0 0 0  0 0 0  0 0 0  178 8 55  178 8 56
178 8 56  178 8 56  0 0 0  0 0 0  178 8 56  178 8 56
177 8 56  178 8 56  0 0 0  0 0 0  0 0 0  0 0 0
0 0 0  0 0 0  0 0 0  0 0 0  0 0 0  0 0 0
0 0 0  0 0 0
0 0 0  0 0 0  0 0 0  0 0 0  0 0 0  0 0 0
0 0 0  0 0 0  0 0 0  0 0 0  0 0 0  0 0 0
0 0 0  177 8 55  178 8 56  178 8 56  177 8 55  0 0 0
0 0 0  0 0 0  0 0 0  0 0 0  0 0 0  0 0 0
0 0 0  0 0 0  0 0 0  0 0 0  0 0 0  0 0 0
0 0 0  0 0 0  0 0 0  0 0 0  0 0 0  0 0 0
0 0 0  0 0 0  177 8 55  178 8 56  178 8 56  178 8 56
0 0 0  0 0 0  0 0 0  0 0 0  0 0 0  0 0 0
0 0 0  0 0 0  0 0 0  0 0 0  0 0 0  0 0 0
0 0 0  0 0 0  0 0 0  0 0 0  178 8 56  178 8 55
178 8 56  178 8 56  0 0 0  0 0 0  178 8 56  177 8 56
177 8 56  178 8 56  0 0 0  0 0 0  0 0 0  0 0 0
0 0 0  0 0 0  0 0 0  0 0 0  0 0 0  0 0 0
0 0 0  0 0 0
0 0 0  0 0 0  0 0 0  0 0 0  0 0 0  0 0 0
0 0 0  0 0 0  0 0 0  0 0 0  0 0 0  0 0 0
0 0 0  177 8 55  178 8 56  178 8 56  177 8 55  0 0 0
0 0 0  0 0 0  0 0 0  0 0 0  0 0 0  0 0 0
0 0 0  0 0 0  0 0 0  0 0 0  0 0 0  0 0 0
0 0 0  0 0 0  0 0 0  0 0 0  0 0 0  0 0 0
0 0 0  0 0 0  177 8 55  178 8 56  178 8 56  178 8 56
0 0 0  0 0 0  0 0 0  0 0 0  0 0 0  0 0 0
0 0 0  0 0 0  0 0 0  0 0 0  0 0 0  0 0 0
178 8 56  0 0 0  0 0 0  178 8 56  178 8 56  178 8 56
178 8 56  178 8 56  0 0 0  0 0 0  178 8 56  177 8 56
177 8 56  178 8 56  0 0 0  0 0 0  0 0 0  0 0 0
0 0 0  0 0 0  0 0 0  0 0 0  0 0 0  0 0 0
0 0 0  0 0 0
0 0 0  0 0 0  0 0 0  0 0 0  0 0 0  0 0 0
0 0 0  0 0 0  0 0 0  0 0 0  0 0 0  0 0 0
0 0 0  177 8 55  178 8 56  178 8 56  177 8 55  0 0 0
0 0 0  0 0 0  0 0 0  0 0 0  0 0 0  0 0 0
0 0 0  0 0 0  0 0 0  0 0 0  0 0 0  0 0 0
0 0 0  0 0 0  0 0 0  0 0 0  0 0 0  0 0 0
0 0 0  0 0 0  177 8 55  178 8 56  177 8 55  178 8 56
0 0 0  0 0 0  0 0 0  0 0 0  0 0 0  0 0 0
0 0 0  0 0 0  0 0 0  0 0 0  0 0 0  0 0 0
0 0 0  0 0 0  178 8 56  178 8 56  178 8 56  178 8 56
178 8 56  177 8 56  0 0 0  0 0 0  178 8 56  177 8 56
177 8 56  178 8 56  0 0 0  0 0 0  0 0 0  0 0 0
0 0 0  0 0 0  0 0 0  0 0 0  0 0 0  0 0 0
0 0 0  0 0 0
0 0 0  0 0 0  0 0 0  0 0 0  0 0 0  0 0 0
0 0 0  0 0 0  0 0 0  0 0 0  0 0 0  0 0 0
0 0 0  177 8 55  178 8 56  177 8 56  177 8 55  0 0 0
0 0 0  0 0 0  0 0 0  0 0 0  0 0 0  0 0 0
0 0 0  0 0 0  0 0 0  0 0 0  0 0 0  0 0 0
0 0 0  0 0 0  0 0 0  0 0 0  0 0 0  0 0 0
0 0 0  0 0 0  177 8 56  178 8 56  177 8 55  178 8 56
178 8 56  177 8 56  177 8 56  177 8 56  177 8 56  177 8 56
177 8 56  177 8 56  177 8 56  177 8 56  177 8 56  177 8 56
178 8 56  178 8 55  178 8 55  178 8 56  178 8 56  178 8 56
178 8 56  177 8 55  177 8 55  0 0 0  178 8 56  177 8 55
177 8 56  178 8 56  0 0 0  0 0 0  0 0 0  0 0 0
0 0 0  0 0 0  0 0 0  0 0 0  0 0 0  0 0 0
0 0 0  0 0 0
0 0 0  0 0 0  0 0 0  0 0 0  0 0 0  0 0 0
0 0 0  0 0 0  0 0 0  0 0 0  0 0 0  0 0 0
0 0 0  177 8 55  177 8 55  177 8 56  177 8 55  0 0 0
0 0 0  0 0 0  0 0 0  0 0 0  0 0 0  0 0 0
0 0 0  0 0 0  0 0 0  0 0 0  0 0 0  0 0 0
0 0 0  0 0 0  0 0 0  0 0 0  0 0 0  0 0 0
0 0 0  0 0 0  178 8 55  177 8 56  178 8 56  178 8 56
178 8 56  178 8 56  178 8 56  178 8 56  178 8 56  178 8 56
178 8 56  178 8 56  178 8 56  178 8 56  178 8 56  177 8 55
177 8 55  178 8 55  178 8 56  178 8 56  178 8 56  178 8 56
178 8 55  0 0 0  0 0 0  0 0 0  178 8 56  178 8 56
177 8 55  178 8 56  0 0 0  0 0 0  0 0 0  0 0 0
0 0 0  0 0 0  0 0 0  0 0 0  0 0 0  0 0 0
0 0 0  0 0 0
0 0 0  0 0 0  0 0 0  0 0 0  0 0 0  0 0 0
0 0 0  0 0 0  0 0 0  0 0 0  0 0 0  0 0 0
0 0 0  177 8 55  177 8 55  177 8 55  177 8 55  0 0 0
0 0 0  0 0 0  0 0 0  0 0 0  0 0 0  0 0 0
0 0 0  0 0 0  0 0 0  0 0 0  0 0 0  0 0 0
0 0 0  0 0 0  0 0 0  0 0 0  0 0 0  0 0 0
0 0 0  0 0 0  178 8 56  177 8 56  178 8 56  178 8 56
178 8 56  178 8 55  178 8 55  178 8 55  178 8 55  178 8 55
178 8 55  178 8 55  178 8 55  178 8 55  178 8 55  177 8 55
178 8 56  177 8 55  178 8 56  178 8 56  178 8 56  178 8 55
178 8 56  0 0 0  0 0 0  0 0 0  178 8 56  178 8 56
177 8 56  178 8 56  0 0 0  0 0 0  0 0 0  0 0 0
0 0 0  0 0 0  0 0 0  0 0 0  0 0 0  0 0 0
0 0 0  0 0 0
0 0 0  0 0 0  0 0 0  0 0 0  0 0 0  0 0 0
0 0 0  0 0 0  0 0 0  0 0 0  0 0 0  0 0 0
0 0 0  177 8 55  178 8 56  178 8 56  177 8 55  0 0 0
0 0 0  0 0 0  0 0 0  0 0 0  0 0 0  0 0 0
0 0 0  0 0 0  0 0 0  0 0 0  0 0 0  0 0 0
0 0 0  0 0 0  0 0 0  0 0 0  0 0 0  0 0 0
0 0 0  0 0 0  177 8 55  178 8 56  178 8 56  178 8 56
178 8 56  178 8 56  178 8 56  178 8 56  178 8 56  178 8 56
178 8 56  178 8 56  178 8 56  178 8 56  178 8 56  178 8 56
178 8 56  178 8 56  178 8 56  178 8 56  178 8 56  178 8 56
0 0 0  178 8 56  0 0 0  0 0 0  178 8 56  177 8 56
177 8 56  178 8 56  0 0 0  0 0 0  0 0 0  0 0 0
0 0 0  0 0 0  0 0 0  0 0 0  0 0 0  0 0 0
0 0 0  0 0 0
0 0 0  0 0 0  0 0 0  0 0 0  0 0 0  0 0 0
0 0 0  0 0 0  0 0 0  0 0 0  0 0 0  0 0 0
0 0 0  177 8 55  178 8 56  178 8 56  177 8 55  0 0 0
0 0 0  0 0 0  0 0 0  0 0 0  0 0 0  0 0 0
0 0 0  0 0 0  0 0 0  0 0 0  0 0 0  0 0 0
0 0 0  0 0 0  0 0 0  0 0 0  0 0 0  0 0 0
0 0 0  0 0 0  178 8 56  178 8 56  178 8 56  178 8 56
178 8 56  178 8 56  178 8 56  178 8 56  178 8 56  178 8 56
178 8 56  178 8 56  178 8 56  178 8 56  178 8 56  178 8 56
178 8 56  178 8 56  178 8 56  178 8 56  178 8 56  0 0 0
178 8 56  0 0 0  0 0 0  0 0 0  178 8 56  178 8 56
177 8 55  178 8 56  0 0 0  0 0 0  0 0 0  0 0 0
0 0 0  0 0 0  0 0 0  0 0 0  0 0 0  0 0 0
0 0 0  0 0 0
0 0 0  0 0 0  0 0 0  0 0 0  0 0 0  0 0 0
0 0 0  0 0 0  0 0 0  0 0 0  0 0 0  0 0 0
0 0 0  177 8 55  178 8 56  177 8 56  177 8 55  0 0 0
0 0 0  0 0 0  0 0 0  0 0 0  0 0 0  0 0 0
0 0 0  0 0 0  0 0 0  0 0 0  0 0 0  0 0 0
0 0 0  0 0 0  0 0 0  0 0 0  0 0 0  0 0 0
0 0 0  0 0 0  178 8 56  178 8 56  178 8 56  178 8 56
178 8 56  178 8 56  178 8 56  178 8 56  178 8 56  178 8 56
178 8 56  178 8 56  178 8 56  178 8 56  178 8 56  178 8 56
178 8 56  178 8 56  178 8 55  177 8 55  0 0 0  0 0 0
178 8 56  0 0 0  0 0 0  0 0 0  178 8 56  178 8 56
178 8 56  178 8 56  0 0 0  0 0 0  0 0 0  0 0 0
0 0 0  0 0 0  0 0 0  0 0 0  0 0 0  0 0 0
0 0 0  0 0 0
0 0 0  0 0 0  0 0 0  0 0 0  0 0 0  0 0 0
0 0 0  0 0 0  0 0 0  0 0 0  0 0 0  0 0 0
0 0 0  177 8 55  178 8 55  177 8 56  177 8 55  0 0 0
0 0 0  0 0 0  0 0 0  0 0 0  0 0 0  0 0 0
0 0 0  0 0 0  0 0 0  0 0 0  0 0 0  0 0 0
0 0 0  0 0 0  0 0 0  0 0 0  0 0 0  0 0 0
0 0 0  0 0 0  178 8 56  177 8 56  178 8 56  178 8 56
178 8 56  178 8 56  178 8 56  178 8 56  178 8 56  178 8 56
178 8 56  178 8 56  178 8 56  178 8 56  178 8 56  177 8 56
178 8 56  178 8 55  177 8 56  0 0 0  0 0 0  0 0 0
0 0 0  0 0 0  0 0 0  0 0 0  178 8 56  178 8 56
178 8 55  177 8 55  0 0 0  0 0 0  0 0 0  0 0 0
0 0 0  0 0 0  0 0 0  0 0 0  0 0 0  0 0 0
0 0 0  0 0 0
0 0 0  0 0 0  0 0 0  0 0 0  0 0 0  0 0 0
0 0 0  0 0 0  0 0 0  0 0 0  0 0 0  0 0 0
178 8 56  0 0 0  0 0 0  0 0 0  0 0 0  177 8 55
0 0 0  0 0 0  0 0 0  0 0 0  0 0 0  0 0 0
0 0 0  0 0 0  0 0 0  0 0 0  0 0 0  0 0 0
0 0 0  0 0 0  0 0 0  0 0 0  0 0 0  0 0 0
0 0 0  177 8 55  0 0 0  0 0 0  0 0 0  0 0 0
0 0 0  0 0 0  0 0 0  0 0 0  0 0 0  0 0 0
0 0 0  0 0 0  0 0 0  0 0 0  0 0 0  0 0 0
0 0 0  0 0 0  0 0 0  177 8 56  0 0 0  0 0 0
0 0 0  0 0 0  0 0 0  178 8 55  0 0 0  0 0 0
0 0 0  0 0 0  0 0 0  0 0 0  0 0 0  0 0 0
0 0 0  0 0 0  0 0 0  0 0 0  0 0 0  0 0 0
0 0 0  0 0 0
0 0 0  0 0 0  0 0 0  0 0 0  0 0 0  0 0 0
0 0 0  0 0 0  0 0 0  0 0 0  0 0 0  0 0 0
0 0 0  0 0 0  0 0 0  0 0 0  0 0 0  0 0 0
0 0 0  0 0 0  0 0 0  0 0 0  0 0 0  0 0 0
0 0 0  0 0 0  0 0 0  0 0 0  0 0 0  0 0 0
0 0 0  0 0 0  0 0 0  0 0 0  0 0 0  0 0 0
0 0 0  0 0 0  0 0 0  0 0 0  0 0 0  0 0 0
0 0 0  0 0 0  0 0 0  0 0 0  0 0 0  0 0 0
0 0 0  0 0 0  0 0 0  0 0 0  0 0 0  0 0 0
0 0 0  0 0 0  0 0 0  0 0 0  0 0 0  0 0 0
0 0 0  0 0 0  0 0 0  0 0 0  0 0 0  0 0 0
0 0 0  0 0 0  0 0 0  0 0 0  0 0 0  0 0 0
0 0 0  0 0 0  0 0 0  0 0 0  0 0 0  0 0 0
0 0 0  0 0 0
0 0 0  0 0 0  0 0 0  0 0 0  0 0 0  0 0 0
0 0 0  0 0 0  0 0 0  0 0 0  0 0 0  0 0 0
35 31 32  0 0 0  0 0 0  0 0 0  0 0 0  35 31 32
0 0 0  0 0 0  0 0 0  0 0 0  0 0 0  0 0 0
0 0 0  0 0 0  0 0 0  0 0 0  0 0 0  35 31 32
0 0 0  34 30 32  0 0 0  0 0 0  0 0 0  0 0 0
0 0 0  0 0 0  35 31 32  0 0 0  0 0 0  0 0 0
35 30 32  0 0 0  0 0 0  0 0 0  0 0 0  0 0 0
0 0 0  0 0 0  0 0 0  0 0 0  0 0 0  0 0 0
0 0 0  0 0 0  0 0 0  0 0 0  0 0 0  0 0 0
0 0 0  35 30 32  0 0 0  34 30 32  0 0 0  0 0 0
0 0 0  0 0 0  0 0 0  0 0 0  0 0 0  0 0 0
0 0 0  0 0 0  0 0 0  0 0 0  0 0 0  0 0 0
0 0 0  0 0 0
0 0 0  0 0 0  0 0 0  0 0 0  0 0 0  0 0 0
0 0 0  0 0 0  0 0 0  0 0 0  0 0 0  0 0 0
0 0 0  35 30 32  34 31 32  35 31 32  34 31 32  0 0 0
0 0 0  0 0 0  0 0 0  0 0 0  0 0 0  0 0 0
0 0 0  0 0 0  0 0 0  0 0 0  0 0 0  0 0 0
35 31 32  0 0 0  0 0 0  0 0 0  0 0 0  0 0 0
35 30 32  35 31 32  0 0 0  0 0 0  0 0 0  0 0 0
0 0 0  35 31 32  35 31 32  35 31 32  35 31 32  0 0 0
0 0 0  0 0 0  0 0 0  0 0 0  0 0 0  0 0 0
0 0 0  0 0 0  0 0 0  0 0 0  0 0 0  0 0 0
34 31 32  0 0 0  35 31 32  0 0 0  0 0 0  0 0 0
0 0 0  0 0 0  0 0 0  0 0 0  0 0 0  0 0 0
0 0 0  0 0 0  0 0 0  0 0 0  0 0 0  0 0 0
0 0 0  0 0 0
0 0 0  0 0 0  0 0 0  0 0 0  0 0 0  0 0 0
0 0 0  0 0 0  0 0 0  0 0 0  0 0 0  0 0 0
0 0 0  35 31 32  35 30 32  35 31 32  34 30 32  35 30 32
0 0 0  35 31 32  34 31 32  34 30 32  35 30 32  35 31 32
34 30 32  34 30 32  35 31 32  34 30 32  35 31 32  35 31 32
35 31 32  35 31 32  34 30 32  35 31 32  34 30 32  35 31 32
34 30 32  34 31 32  34 30 32  34 30 32  35 30 32  34 30 32
0 0 0  35 31 32  34 30 32  35 30 32  35 30 32  0 0 0
34 30 32  35 31 32  35 31 32  35 31 32  34 30 32  35 30 32
35 31 32  35 31 32  35 31 32  35 30 32  34 30 32  34 30 32
0 0 0  0 0 0  35 31 32  35 31 32  35 31 32  0 0 0
35 31 32  35 31 32  0 0 0  0 0 0  0 0 0  0 0 0
0 0 0  0 0 0  0 0 0  0 0 0  0 0 0  0 0 0
0 0 0  0 0 0
0 0 0  0 0 0  0 0 0  0 0 0  0 0 0  0 0 0
0 0 0  0 0 0  0 0 0  0 0 0  0 0 0  0 0 0
0 0 0  34 30 32  35 30 32  35 30 32  34 30 32  35 31 32
34 30 32  35 31 32  35 31 32  35 31 32  34 30 32  34 30 32
35 31 32  34 31 32  35 31 32  35 31 32  35 31 32  34 31 32
35 31 32  35 30 32  35 31 32  35 31 32  35 31 32  35 31 32
35 31 32  35 30 32  35 31 32  34 30 32  35 31 32  35 31 32
0 0 0  35 30 32  35 31 32  35 31 32  35 31 32  35 30 32
35 31 32  35 31 32  35 31 32  35 31 32  35 31 32  35 31 32
35 31 32  35 31 32  34 30 32  35 30 32  35 31 32  35 30 32
0 0 0  0 0 0  35 30 32  35 31 32  35 30 32  35 31 32
34 30 32  35 31 32  0 0 0  0 0 0  0 0 0  0 0 0
0 0 0  0 0 0  0 0 0  0 0 0  0 0 0  0 0 0
0 0 0  0 0 0
0 0 0  0 0 0  0 0 0  0 0 0  0 0 0  0 0 0
0 0 0  0 0 0  0 0 0  0 0 0  0 0 0  0 0 0
0 0 0  34 31 32  35 30 32  35 31 32  34 30 32  35 31 32
35 30 32  34 30 32  34 31 32  35 31 32  34 30 32  35 30 32
34 30 32  35 31 32  35 30 32  35 31 32  34 31 32  34 31 32
34 30 32  34 30 32  35 30 32  34 30 32  34 31 32  34 30 32
35 31 32  35 31 32  34 30 32  34 30 32  35 30 32  35 31 32
35 31 32  35 30 32  34 31 32  34 30 32  35 31 32  35 31 32
34 31 32  34 30 32  34 30 32  35 31 32  35 31 32  35 31 32
35 30 32  34 31 32  35 31 32  35 30 32  35 31 32  34 31 32
0 0 0  0 0 0  34 30 32  34 31 32  34 31 32  35 31 32
34 30 32  35 30 32  0 0 0  0 0 0  0 0 0  0 0 0
0 0 0  0 0 0  0 0 0  0 0 0  0 0 0  0 0 0
0 0 0  0 0 0
0 0 0  0 0 0  0 0 0  0 0 0  0 0 0  0 0 0
0 0 0  0 0 0  0 0 0  0 0 0  0 0 0  0 0 0
0 0 0  35 30 32  35 31 32  35 31 32  35 31 32  35 31 32
35 30 32  34 30 32  35 31 32  35 30 32  35 31 32  35 31 32
35 31 32  35 30 32  35 31 32  35 31 32  34 30 32  35 31 32
35 31 32  35 31 32  35 31 32  35 31 32  35 30 32  35 31 32
35 31 32  35 31 32  34 30 32  35 30 32  35 30 32  35 30 32
35 30 32  34 30 32  35 30 32  35 30 32  35 31 32  35 31 32
35 30 32  35 31 32  35 31 32  35 31 32  35 31 32  35 31 32
35 31 32  34 31 32  35 31 32  35 31 32  35 31 32  35 30 32
35 31 32  0 0 0  35 31 32  35 31 32  35 30 32  35 31 32
34 30 32  35 31 32  0 0 0  0 0 0  0 0 0  0 0 0
0 0 0  0 0 0  0 0 0  0 0 0  0 0 0  0 0 0
0 0 0  0 0 0
0 0 0  0 0 0  0 0 0  0 0 0  0 0 0  0 0 0
0 0 0  0 0 0  0 0 0  0 0 0  0 0 0  0 0 0
0 0 0  34 30 32  35 31 32  35 31 32  34 30 32  35 31 32
35 30 32  35 31 32  35 31 32  35 30 32  35 30 32  35 30 32
35 30 32  35 31 32  35 31 32  34 30 32  34 31 32  35 31 32
35 31 32  35 31 32  35 30 32  35 31 32  34 30 32  35 30 32
35 31 32  35 31 32  35 31 32  34 31 32  35 31 32  35 31 32
35 31 32  35 31 32  35 30 32  35 31 32  35 31 32  35 31 32
35 30 32  35 31 32  35 31 32  35 30 32  34 31 32  35 31 32
34 31 32  35 31 32  35 31 32  35 31 32  35 31 32  35 31 32
35 31 32  35 31 32  35 30 32  34 30 32  35 31 32  34 30 32
35 31 32  35 31 32  0 0 0  0 0 0  0 0 0  0 0 0
0 0 0  0 0 0  0 0 0  0 0 0  0 0 0  0 0 0
0 0 0  0 0 0
0 0 0  0 0 0  0 0 0  0 0 0  0 0 0  0 0 0
0 0 0  0 0 0  0 0 0  0 0 0  0 0 0  0 0 0
35 31 32  0 0 0  0 0 0  0 0 0  0 0 0  0 0 0
0 0 0  0 0 0  0 0 0  0 0 0  0 0 0  0 0 0
0 0 0  0 0 0  0 0 0  0 0 0  0 0 0  0 0 0
0 0 0  0 0 0  0 0 0  0 0 0  0 0 0  0 0 0
0 0 0  0 0 0  0 0 0  0 0 0  0 0 0  0 0 0
0 0 0  0 0 0  0 0 0  0 0 0  34 31 32  35 31 32
0 0 0  0 0 0  0 0 0  0 0 0  0 0 0  0 0 0
0 0 0  0 0 0  0 0 0  0 0 0  0 0 0  0 0 0
35 30 32  35 31 32  0 0 0  0 0 0  0 0 0  0 0 0
0 0 0  0 0 0  0 0 0  0 0 0  0 0 0  0 0 0
0 0 0  0 0 0  0 0 0  0 0 0  0 0 0  0 0 0
0 0 0  0 0 0
0 0 0  0 0 0  0 0 0  0 0 0  0 0 0  0 0 0
0 0 0  0 0 0  0 0 0  0 0 0  0 0 0  0 0 0
0 0 0  0 0 0  0 0 0  0 0 0  0 0 0  0 0 0
0 0 0  0 0 0  0 0 0  0 0 0  0 0 0  0 0 0
0 0 0  0 0 0  0 0 0  0 0 0  0 0 0  0 0 0
0 0 0  0 0 0  0 0 0  0 0 0  0 0 0  0 0 0
0 0 0  0 0 0  0 0 0  0 0 0  0 0 0  0 0 0
0 0 0  0 0 0  0 0 0  0 0 0  35 31 32  34 30 32
0 0 0  0 0 0  0 0 0  0 0 0  0 0 0  0 0 0
0 0 0  0 0 0  0 0 0  0 0 0  0 0 0  35 31 32
0 0 0  0 0 0  0 0 0  0 0 0  0 0 0  0 0 0
0 0 0  0 0 0  0 0 0  0 0 0  0 0 0  0 0 0
0 0 0  0 0 0  0 0 0  0 0 0  0 0 0  0 0 0
0 0 0  0 0 0
0 0 0  0 0 0  0 0 0  0 0 0  0 0 0  0 0 0
0 0 0  0 0 0  0 0 0  0 0 0  0 0 0  0 0 0
0 0 0  0 0 0  0 0 0  0 0 0  0 0 0  0 0 0
0 0 0  0 0 0  0 0 0  0 0 0  0 0 0  0 0 0
0 0 0  0 0 0  0 0 0  0 0 0  0 0 0  0 0 0
0 0 0  0 0 0  0 0 0  0 0 0  0 0 0  0 0 0
0 0 0  0 0 0  0 0 0  0 0 0  0 0 0  0 0 0
0 0 0  0 0 0  0 0 0  35 31 32  0 0 0  0 0 0
34 30 32  0 0 0  0 0 0  0 0 0  0 0 0  0 0 0
0 0 0  0 0 0  0 0 0  0 0 0  0 0 0  0 0 0
0 0 0  0 0 0  0 0 0  0 0 0  0 0 0  0 0 0
0 0 0  0 0 0  0 0 0  0 0 0  0 0 0  0 0 0
0 0 0  0 0 0  0 0 0  0 0 0  0 0 0  0 0 0
0 0 0  0 0 0
0 0 0  0 0 0  0 0 0  0 0 0  0 0 0  0 0 0
0 0 0  0 0 0  0 0 0  0 0 0  0 0 0  0 0 0
0 0 0  0 0 0  0 0 0  0 0 0  0 0 0  0 0 0
0 0 0  0 0 0  0 0 0  0 0 0  0 0 0  0 0 0
0 0 0  0 0 0  0 0 0  0 0 0  0 0 0  0 0 0
0 0 0  0 0 0  0 0 0  0 0 0  0 0 0  0 0 0
0 0 0  0 0 0  0 0 0  0 0 0  0 0 0  0 0 0
0 0 0  0 0 0  0 0 0  0 0 0  0 0 0  0 0 0
0 0 0  0 0 0  0 0 0  0 0 0  0 0 0  0 0 0
0 0 0  0 0 0  0 0 0  0 0 0  0 0 0  0 0 0
0 0 0  0 0 0  0 0 0  0 0 0  0 0 0  0 0 0
0 0 0  0 0 0  0 0 0  0 0 0  0 0 0  0 0 0
0 0 0  0 0 0  0 0 0  0 0 0  0 0 0  0 0 0
0 0 0  0 0 0
0 0 0  0 0 0  0 0 0  0 0 0  0 0 0  0 0 0
0 0 0  0 0 0  0 0 0  0 0 0  0 0 0  0 0 0
0 0 0  0 0 0  0 0 0  0 0 0  0 0 0  0 0 0
0 0 0  0 0 0  0 0 0  0 0 0  0 0 0  0 0 0
0 0 0  0 0 0  0 0 0  0 0 0  0 0 0  0 0 0
0 0 0  0 0 0  0 0 0  0 0 0  0 0 0  0 0 0
0 0 0  0 0 0  0 0 0  0 0 0  0 0 0  0 0 0
0 0 0  0 0 0  0 0 0  0 0 0  0 0 0  0 0 0
0 0 0  0 0 0  0 0 0  0 0 0  0 0 0  0 0 0
0 0 0  0 0 0  0 0 0  0 0 0  0 0 0  0 0 0
0 0 0  0 0 0  0 0 0  0 0 0  0 0 0  0 0 0
0 0 0  0 0 0  0 0 0  0 0 0  0 0 0  0 0 0
0 0 0  0 0 0  0 0 0  0 0 0  0 0 0  0 0 0
0 0 0  0 0 0
0 0 0  0 0 0  0 0 0  0 0 0  0 0 0  0 0 0
0 0 0  0 0 0  0 0 0  0 0 0  0 0 0  0 0 0
0 0 0  0 0 0  0 0 0  0 0 0  0 0 0  0 0 0
0 0 0  0 0 0  0 0 0  0 0 0  0 0 0  0 0 0
0 0 0  0 0 0  0 0 0  0 0 0  0 0 0  0 0 0
0 0 0  0 0 0  0 0 0  0 0 0  0 0 0  0 0 0
0 0 0  0 0 0  0 0 0  0 0 0  0 0 0  0 0 0
0 0 0  0 0 0  0 0 0  0 0 0  0 0 0  0 0 0
0 0 0  0 0 0  0 0 0  0 0 0  0 0 0  0 0 0
0 0 0  0 0 0  0 0 0  0 0 0  0 0 0  0 0 0
0 0 0  0 0 0  0 0 0  0 0 0  0 0 0  0 0 0
0 0 0  0 0 0  0 0 0  0 0 0  0 0 0  0 0 0
0 0 0  0 0 0  0 0 0  0 0 0  0 0 0  0 0 0
0 0 0  0 0 0
0 0 0  0 0 0  0 0 0  0 0 0  0 0 0  0 0 0
0 0 0  0 0 0  0 0 0  0 0 0  0 0 0  0 0 0
0 0 0  0 0 0  0 0 0  0 0 0  0 0 0  0 0 0
0 0 0  0 0 0  0 0 0  0 0 0  0 0 0  0 0 0
0 0 0  0 0 0  0 0 0  0 0 0  0 0 0  0 0 0
0 0 0  0 0 0  0 0 0  0 0 0  0 0 0  0 0 0
0 0 0  0 0 0  0 0 0  0 0 0  0 0 0  0 0 0
0 0 0  0 0 0  0 0 0  0 0 0  0 0 0  0 0 0
0 0 0  0 0 0  0 0 0  0 0 0  0 0 0  0 0 0
0 0 0  0 0 0  0 0 0  0 0 0  0 0 0  0 0 0
0 0 0  0 0 0  0 0 0  0 0 0  0 0 0  0 0 0
0 0 0  0 0 0  0 0 0  0 0 0  0 0 0  0 0 0
0 0 0  0 0 0  0 0 0  0 0 0  0 0 0  0 0 0
0 0 0  0 0 0
0 0 0  0 0 0  0 0 0  0 0 0  0 0 0  0 0 0
0 0 0  0 0 0  0 0 0  0 0 0  0 0 0  0 0 0
0 0 0  0 0 0  0 0 0  0 0 0  0 0 0  0 0 0
0 0 0  0 0 0  0 0 0  0 0 0  0 0 0  0 0 0
0 0 0  0 0 0  0 0 0  0 0 0  0 0 0  0 0 0
0 0 0  0 0 0  0 0 0  0 0 0  0 0 0  0 0 0
0 0 0  0 0 0  0 0 0  0 0 0  0 0 0  0 0 0
0 0 0  0 0 0  0 0 0  0 0 0  0 0 0  0 0 0
0 0 0  0 0 0  0 0 0  0 0 0  0 0 0  0 0 0
0 0 0  0 0 0  0 0 0  0 0 0  0 0 0  0 0 0
0 0 0  0 0 0  0 0 0  0 0 0  0 0 0  0 0 0
0 0 0  0 0 0  0 0 0  0 0 0  0 0 0  0 0 0
0 0 0  0 0 0  0 0 0  0 0 0  0 0 0  0 0 0
0 0 0  0 0 0
0 0 0  0 0 0  0 0 0  0 0 0  0 0 0  0 0 0
0 0 0  0 0 0  0 0 0  0 0 0  0 0 0  0 0 0
0 0 0  0 0 0  0 0 0  0 0 0  0 0 0  0 0 0
0 0 0  0 0 0  0 0 0  0 0 0  0 0 0  0 0 0
0 0 0  0 0 0  0 0 0  0 0 0  0 0 0  0 0 0
0 0 0  0 0 0  0 0 0  0 0 0  0 0 0  0 0 0
0 0 0  0 0 0  0 0 0  0 0 0  0 0 0  0 0 0
0 0 0  0 0 0  0 0 0  0 0 0  0 0 0  0 0 0
0 0 0  0 0 0  0 0 0  0 0 0  0 0 0  0 0 0
0 0 0  0 0 0  0 0 0  0 0 0  0 0 0  0 0 0
0 0 0  0 0 0  0 0 0  0 0 0  0 0 0  0 0 0
0 0 0  0 0 0  0 0 0  0 0 0  0 0 0  0 0 0
0 0 0  0 0 0  0 0 0  0 0 0  0 0 0  0 0 0
0 0 0  0 0 0
0 0 0  0 0 0  0 0 0  0 0 0  0 0 0  0 0 0
0 0 0  0 0 0  0 0 0  0 0 0  0 0 0  0 0 0
0 0 0  0 0 0  0 0 0  0 0 0  0 0 0  0 0 0
0 0 0  0 0 0  0 0 0  0 0 0  0 0 0  0 0 0
0 0 0  0 0 0  0 0 0  0 0 0  0 0 0  0 0 0
0 0 0  0 0 0  0 0 0  0 0 0  0 0 0  0 0 0
0 0 0  0 0 0  0 0 0  0 0 0  0 0 0  0 0 0
0 0 0  0 0 0  0 0 0  0 0 0  0 0 0  0 0 0
0 0 0  0 0 0  0 0 0  0 0 0  0 0 0  0 0 0
0 0 0  0 0 0  0 0 0  0 0 0  0 0 0  0 0 0
0 0 0  0 0 0  0 0 0  0 0 0  0 0 0  0 0 0
0 0 0  0 0 0  0 0 0  0 0 0  0 0 0  0 0 0
0 0 0  0 0 0  0 0 0  0 0 0  0 0 0  0 0 0
0 0 0  0 0 0
0 0 0  0 0 0  0 0 0  0 0 0  0 0 0  0 0 0
0 0 0  0 0 0  0 0 0  0 0 0  0 0 0  0 0 0
0 0 0  0 0 0  0 0 0  0 0 0  0 0 0  0 0 0
0 0 0  0 0 0  0 0 0  0 0 0  0 0 0  0 0 0
0 0 0  0 0 0  0 0 0  0 0 0  0 0 0  0 0 0
0 0 0  0 0 0  0 0 0  0 0 0  0 0 0  0 0 0
0 0 0  0 0 0  0 0 0  0 0 0  0 0 0  0 0 0
0 0 0  0 0 0  0 0 0  0 0 0  0 0 0  0 0 0
0 0 0  0 0 0  0 0 0  0 0 0  0 0 0  0 0 0
0 0 0  0 0 0  0 0 0  0 0 0  0 0 0  0 0 0
0 0 0  0 0 0  0 0 0  0 0 0  0 0 0  0 0 0
0 0 0  0 0 0  0 0 0  0 0 0  0 0 0  0 0 0
0 0 0  0 0 0  0 0 0  0 0 0  0 0 0  0 0 0
0 0 0  0 0 0
0 0 0  0 0 0  0 0 0  0 0 0  0 0 0  0 0 0
0 0 0  0 0 0  0 0 0  0 0 0  0 0 0  0 0 0
0 0 0  0 0 0  0 0 0  0 0 0  0 0 0  0 0 0
0 0 0  0 0 0  0 0 0  0 0 0  0 0 0  0 0 0
0 0 0  0 0 0  0 0 0  0 0 0  0 0 0  0 0 0
0 0 0  0 0 0  0 0 0  0 0 0  0 0 0  0 0 0
0 0 0  0 0 0  0 0 0  0 0 0  0 0 0  0 0 0
0 0 0  0 0 0  0 0 0  0 0 0  0 0 0  0 0 0
0 0 0  0 0 0  0 0 0  0 0 0  0 0 0  0 0 0
0 0 0  0 0 0  0 0 0  0 0 0  0 0 0  0 0 0
0 0 0  0 0 0  0 0 0  0 0 0  0 0 0  0 0 0
0 0 0  0 0 0  0 0 0  0 0 0  0 0 0  0 0 0
0 0 0  0 0 0  0 0 0  0 0 0  0 0 0  0 0 0
0 0 0  0 0 0
0 0 0  0 0 0  0 0 0  0 0 0  0 0 0  0 0 0
0 0 0  0 0 0  0 0 0  0 0 0  0 0 0  0 0 0
0 0 0  0 0 0  0 0 0  0 0 0  0 0 0  0 0 0
0 0 0  0 0 0  0 0 0  0 0 0  0 0 0  0 0 0
0 0 0  0 0 0  0 0 0  0 0 0  0 0 0  0 0 0
0 0 0  0 0 0  0 0 0  0 0 0  0 0 0  0 0 0
0 0 0  0 0 0  0 0 0  0 0 0  0 0 0  0 0 0
0 0 0  0 0 0  0 0 0  0 0 0  0 0 0  0 0 0
0 0 0  0 0 0  0 0 0  0 0 0  0 0 0  0 0 0
0 0 0  0 0 0  0 0 0  0 0 0  0 0 0  0 0 0
0 0 0  0 0 0  0 0 0  0 0 0  0 0 0  0 0 0
0 0 0  0 0 0  0 0 0  0 0 0  0 0 0  0 0 0
0 0 0  0 0 0  0 0 0  0 0 0  0 0 0  0 0 0
0 0 0  0 0 0
0 0 0  0 0 0  0 0 0  0 0 0  0 0 0  0 0 0
0 0 0  0 0 0  0 0 0  0 0 0  0 0 0  0 0 0
0 0 0  0 0 0  0 0 0  0 0 0  0 0 0  0 0 0
0 0 0  0 0 0  0 0 0  0 0 0  0 0 0  0 0 0
0 0 0  0 0 0  0 0 0  0 0 0  0 0 0  0 0 0
0 0 0  0 0 0  0 0 0  0 0 0  0 0 0  0 0 0
0 0 0  0 0 0  0 0 0  0 0 0  0 0 0  0 0 0
0 0 0  0 0 0  0 0 0  0 0 0  0 0 0  0 0 0
0 0 0  0 0 0  0 0 0  0 0 0  0 0 0  0 0 0
0 0 0  0 0 0  0 0 0  0 0 0  0 0 0  0 0 0
0 0 0  0 0 0  0 0 0  0 0 0  0 0 0  0 0 0
0 0 0  0 0 0  0 0 0  0 0 0  0 0 0  0 0 0
0 0 0  0 0 0  0 0 0  0 0 0  0 0 0  0 0 0
0 0 0  0 0 0
0 0 0  0 0 0  0 0 0  0 0 0  0 0 0  0 0 0
0 0 0  0 0 0  0 0 0  0 0 0  0 0 0  0 0 0
0 0 0  0 0 0  0 0 0  0 0 0  0 0 0  0 0 0
0 0 0  0 0 0  0 0 0  0 0 0  0 0 0  0 0 0
0 0 0  0 0 0  0 0 0  0 0 0  0 0 0  0 0 0
0 0 0  0 0 0  0 0 0  0 0 0  0 0 0  0 0 0
0 0 0  0 0 0  0 0 0  0 0 0  0 0 0  0 0 0
0 0 0  0 0 0  0 0 0  0 0 0  0 0 0  0 0 0
0 0 0  0 0 0  0 0 0  0 0 0  0 0 0  0 0 0
0 0 0  0 0 0  0 0 0  0 0 0  0 0 0  0 0 0
0 0 0  0 0 0  0 0 0  0 0 0  0 0 0  0 0 0
0 0 0  0 0 0  0 0 0  0 0 0  0 0 0  0 0 0
0 0 0  0 0 0  0 0 0  0 0 0  0 0 0  0 0 0
0 0 0  0 0 0
0 0 0  0 0 0  0 0 0  0 0 0  0 0 0  0 0 0
0 0 0  0 0 0  0 0 0  0 0 0  0 0 0  0 0 0
0 0 0  0 0 0  0 0 0  0 0 0  0 0 0  0 0 0
0 0 0  0 0 0  0 0 0  0 0 0  0 0 0  0 0 0
0 0 0  0 0 0  0 0 0  0 0 0  0 0 0  0 0 0
0 0 0  0 0 0  0 0 0  0 0 0  0 0 0  0 0 0
0 0 0  0 0 0  0 0 0  0 0 0  0 0 0  0 0 0
0 0 0  0 0 0  0 0 0  0 0 0  0 0 0  0 0 0
0 0 0  0 0 0  0 0 0  0 0 0  0 0 0  0 0 0
0 0 0  0 0 0  0 0 0  0 0 0  0 0 0  0 0 0
0 0 0  0 0 0  0 0 0  0 0 0  0 0 0  0 0 0
0 0 0  0 0 0  0 0 0  0 0 0  0 0 0  0 0 0
0 0 0  0 0 0  0 0 0  0 0 0  0 0 0  0 0 0
0 0 0  0 0 0
0 0 0  0 0 0  0 0 0  0 0 0  0 0 0  0 0 0
0 0 0  0 0 0  0 0 0  0 0 0  0 0 0  0 0 0
0 0 0  0 0 0  0 0 0  0 0 0  0 0 0  0 0 0
0 0 0  0 0 0  0 0 0  0 0 0  0 0 0  0 0 0
0 0 0  0 0 0  0 0 0  0 0 0  0 0 0  0 0 0
0 0 0  0 0 0  0 0 0  0 0 0  0 0 0  0 0 0
0 0 0  0 0 0  0 0 0  0 0 0  0 0 0  0 0 0
0 0 0  0 0 0  0 0 0  0 0 0  0 0 0  0 0 0
0 0 0  0 0 0  0 0 0  0 0 0  0 0 0  0 0 0
0 0 0  0 0 0  0 0 0  0 0 0  0 0 0  0 0 0
0 0 0  0 0 0  0 0 0  0 0 0  0 0 0  0 0 0
0 0 0  0 0 0  0 0 0  0 0 0  0 0 0  0 0 0
0 0 0  0 0 0  0 0 0  0 0 0  0 0 0  0 0 0
0 0 0  0 0 0
0 0 0  0 0 0  0 0 0  0 0 0  0 0 0  0 0 0
0 0 0  0 0 0  0 0 0  0 0 0  0 0 0  0 0 0
0 0 0  0 0 0  0 0 0  0 0 0  0 0 0  0 0 0
0 0 0  0 0 0  0 0 0  0 0 0  0 0 0  0 0 0
0 0 0  0 0 0  0 0 0  0 0 0  0 0 0  0 0 0
0 0 0  0 0 0  0 0 0  0 0 0  0 0 0  0 0 0
0 0 0  0 0 0  0 0 0  0 0 0  0 0 0  0 0 0
0 0 0  0 0 0  0 0 0  0 0 0  0 0 0  0 0 0
0 0 0  0 0 0  0 0 0  0 0 0  0 0 0  0 0 0
0 0 0  0 0 0  0 0 0  0 0 0  0 0 0  0 0 0
0 0 0  0 0 0  0 0 0  0 0 0  0 0 0  0 0 0
0 0 0  0 0 0  0 0 0  0 0 0  0 0 0  0 0 0
0 0 0  0 0 0  0 0 0  0 0 0  0 0 0  0 0 0
0 0 0  0 0 0
0 0 0  0 0 0  0 0 0  0 0 0  0 0 0  0 0 0
0 0 0  0 0 0  0 0 0  0 0 0  0 0 0  0 0 0
0 0 0  0 0 0  0 0 0  0 0 0  0 0 0  0 0 0
0 0 0  0 0 0  0 0 0  0 0 0  0 0 0  0 0 0
0 0 0  0 0 0  0 0 0  0 0 0  0 0 0  0 0 0
0 0 0  0 0 0  0 0 0  0 0 0  0 0 0  0 0 0
0 0 0  0 0 0  0 0 0  0 0 0  0 0 0  0 0 0
0 0 0  0 0 0  0 0 0  0 0 0  0 0 0  0 0 0
0 0 0  0 0 0  0 0 0  0 0 0  0 0 0  0 0 0
0 0 0  0 0 0  0 0 0  0 0 0  0 0 0  0 0 0
0 0 0  0 0 0  0 0 0  0 0 0  0 0 0  0 0 0
0 0 0  0 0 0  0 0 0  0 0 0  0 0 0  0 0 0
0 0 0  0 0 0  0 0 0  0 0 0  0 0 0  0 0 0
0 0 0  0 0 0
0 0 0  0 0 0  0 0 0  0 0 0  0 0 0  0 0 0
0 0 0  0 0 0  0 0 0  0 0 0  0 0 0  0 0 0
0 0 0  0 0 0  0 0 0  0 0 0  0 0 0  0 0 0
0 0 0  0 0 0  0 0 0  0 0 0  0 0 0  0 0 0
0 0 0  0 0 0  0 0 0  0 0 0  0 0 0  0 0 0
0 0 0  0 0 0  0 0 0  0 0 0  0 0 0  0 0 0
0 0 0  0 0 0  0 0 0  0 0 0  0 0 0  0 0 0
0 0 0  0 0 0  0 0 0  0 0 0  0 0 0  0 0 0
0 0 0  0 0 0  0 0 0  0 0 0  0 0 0  0 0 0
0 0 0  0 0 0  0 0 0  0 0 0  0 0 0  0 0 0
0 0 0  0 0 0  0 0 0  0 0 0  0 0 0  0 0 0
0 0 0  0 0 0  0 0 0  0 0 0  0 0 0  0 0 0
0 0 0  0 0 0  0 0 0  0 0 0  0 0 0  0 0 0
0 0 0  0 0 0
0 0 0  0 0 0  0 0 0  0 0 0  0 0 0  0 0 0
0 0 0  0 0 0  0 0 0  0 0 0  0 0 0  0 0 0
0 0 0  0 0 0  0 0 0  0 0 0  0 0 0  0 0 0
0 0 0  0 0 0  0 0 0  0 0 0  0 0 0  0 0 0
0 0 0  0 0 0  0 0 0  0 0 0  0 0 0  0 0 0
0 0 0  0 0 0  0 0 0  0 0 0  0 0 0  0 0 0
0 0 0  0 0 0  0 0 0  0 0 0  0 0 0  0 0 0
0 0 0  0 0 0  0 0 0  0 0 0  0 0 0  0 0 0
0 0 0  0 0 0  0 0 0  0 0 0  0 0 0  0 0 0
0 0 0  0 0 0  0 0 0  0 0 0  0 0 0  0 0 0
0 0 0  0 0 0  0 0 0  0 0 0  0 0 0  0 0 0
0 0 0  0 0 0  0 0 0  0 0 0  0 0 0  0 0 0
0 0 0  0 0 0  0 0 0  0 0 0  0 0 0  0 0 0
0 0 0  0 0 0
